<svg width="17" height="16" viewBox="0 0 17 16" fill="none" xmlns="http://www.w3.org/2000/svg">
<path d="M9.51425 3.81794C9.51425 3.98169 9.51425 4.51541 9.51425 5.27366H12.1213L11.8386 7.59763H9.51425C9.51425 11.1816 9.51425 15.9843 9.51425 15.9843H6.42907C6.42907 15.9843 6.42907 11.2452 6.42907 7.59763H4.82147V5.27366H6.42907C6.42907 4.35204 6.42907 3.69669 6.42907 3.51422C6.42907 2.64485 6.36357 2.23235 6.73297 1.55866C7.10257 0.885005 8.14507 -0.00543266 9.94816 0.0160048C11.7517 0.0382236 12.5119 0.211724 12.5119 0.211724L12.1213 2.6885C12.1213 2.6885 10.9696 2.38441 10.4043 2.49279C9.83978 2.60119 9.51425 2.94894 9.51425 3.81794Z" fill="white"/>
</svg>
