<svg width="16" height="16" viewBox="0 0 16 16" fill="none" xmlns="http://www.w3.org/2000/svg">
<g clip-path="url(#clip0_8604_1006)">
<path d="M8.00001 14.6666C6.57052 14.6666 5.54183 14.6659 4.73981 14.5881C3.94698 14.5112 3.43981 14.3636 3.03506 14.1092C2.57246 13.8186 2.18129 13.4274 1.89062 12.9649C1.63637 12.5601 1.4886 12.0529 1.41183 11.2601C1.33405 10.4581 1.33334 9.42941 1.33334 7.99992C1.33334 6.57042 1.33405 5.54174 1.41183 4.73972C1.4886 3.94689 1.63637 3.43972 1.89062 3.03497C2.18128 2.57236 2.57245 2.18119 3.03506 1.89052C3.43981 1.63628 3.94698 1.4885 4.73981 1.41174C5.54173 1.33396 6.57041 1.33325 8.00001 1.33325C9.42951 1.33325 10.4582 1.33396 11.2602 1.41174C12.053 1.4885 12.5602 1.63628 12.965 1.89052C13.4275 2.1812 13.8187 2.57237 14.1093 3.03497C14.3636 3.43972 14.5113 3.94689 14.5882 4.73972C14.666 5.54174 14.6667 6.57042 14.6667 7.99992C14.6667 9.42941 14.666 10.4581 14.5882 11.2601C14.5113 12.0529 14.3636 12.5601 14.1093 12.9649C13.8187 13.4274 13.4275 13.8186 12.965 14.1092C12.5602 14.3636 12.053 14.5112 11.2602 14.5881C10.4582 14.6659 9.42951 14.6666 8.00001 14.6666Z" fill="white" stroke="white" stroke-width="2"/>
<path d="M8.00001 11.3333C9.47277 11.3333 10.6667 10.1394 10.6667 8.66667C10.6667 7.19391 9.47277 6 8.00001 6C6.52725 6 5.33334 7.19391 5.33334 8.66667C5.33334 10.1394 6.52725 11.3333 8.00001 11.3333Z" fill="white" stroke="black" stroke-width="2"/>
<path d="M11.25 5.5C11.6642 5.5 12 5.16421 12 4.75C12 4.33579 11.6642 4 11.25 4C10.8358 4 10.5 4.33579 10.5 4.75C10.5 5.16421 10.8358 5.5 11.25 5.5Z" fill="black"/>
</g>
<defs>
<clipPath id="clip0_8604_1006">
<rect width="16" height="16" fill="white"/>
</clipPath>
</defs>
</svg>
