<svg width="19" height="18" viewBox="0 0 19 18" fill="none" xmlns="http://www.w3.org/2000/svg">
<path d="M3.33405 2.25H15.3341C15.7483 2.25 16.0841 2.58579 16.0841 3V15C16.0841 15.4142 15.7483 15.75 15.3341 15.75H3.33405C2.91983 15.75 2.58405 15.4142 2.58405 15V3C2.58405 2.58579 2.91983 2.25 3.33405 2.25ZM4.08405 3.75V14.25H14.5841V3.75H4.08405ZM5.95905 6.75C5.33772 6.75 4.83405 6.24632 4.83405 5.625C4.83405 5.00368 5.33772 4.5 5.95905 4.5C6.58036 4.5 7.08405 5.00368 7.08405 5.625C7.08405 6.24632 6.58036 6.75 5.95905 6.75ZM5.20905 7.5H6.70905V13.125H5.20905V7.5ZM9.33406 7.82212C9.77236 7.399 10.2832 7.125 10.8341 7.125C12.3873 7.125 13.4591 8.38417 13.4591 9.9375V13.125H11.9591V9.9375C11.9591 9.21263 11.3714 8.625 10.6466 8.625C9.92169 8.625 9.33406 9.21263 9.33406 9.9375V13.125H7.83406V7.5H9.33406V7.82212Z" fill="white"/>
</svg>
