<svg width="341" height="24" viewBox="0 0 341 24" fill="none" xmlns="http://www.w3.org/2000/svg">
<line y1="11.75" x2="158.5" y2="11.75" stroke="url(#paint0_linear_8632_1404)" stroke-width="0.5" stroke-dasharray="3 3"/>
<path d="M170.5 0C177.127 0 182.5 5.37258 182.5 12C182.5 18.6274 177.127 24 170.5 24C163.873 24 158.5 18.6274 158.5 12C158.5 5.37258 163.873 0 170.5 0ZM170.5 6C169.948 6 169.5 6.44772 169.5 7V11H165.5C164.948 11 164.5 11.4477 164.5 12C164.5 12.5523 164.948 13 165.5 13H169.5V17C169.5 17.5523 169.948 18 170.5 18C171.052 18 171.5 17.5523 171.5 17V13H175.5L175.603 12.9951C176.107 12.9438 176.5 12.5177 176.5 12C176.5 11.4823 176.107 11.0562 175.603 11.0049L175.5 11H171.5V7C171.5 6.44772 171.052 6 170.5 6Z" fill="black"/>
<line x1="341" y1="12.25" x2="182.5" y2="12.25" stroke="url(#paint1_linear_8632_1404)" stroke-width="0.5" stroke-dasharray="3 3"/>
<defs>
<linearGradient id="paint0_linear_8632_1404" x1="160.558" y1="12" x2="0" y2="12" gradientUnits="userSpaceOnUse">
<stop/>
<stop offset="1" stop-color="#E6E6E6"/>
</linearGradient>
<linearGradient id="paint1_linear_8632_1404" x1="180.442" y1="12" x2="341" y2="12" gradientUnits="userSpaceOnUse">
<stop/>
<stop offset="1" stop-color="#E6E6E6"/>
</linearGradient>
</defs>
</svg>
